<svg xmlns="http://www.w3.org/2000/svg" xmlns:xlink="http://www.w3.org/1999/xlink" width="43" height="41"><defs><path id="a" d="M67.623 53.954l-3.763 3.788.039 8.759a1.126 1.126 0 0 0-.053.247c.002-.02.005-.04 0-.027a2.34 2.34 0 0 0-.039.14 1.4 1.4 0 0 0-.038.124c-.012.047-.02.095-.037.14l-.028.053a2.283 2.283 0 0 1-.084.166l-.034.048c-.04.06-.085.114-.125.157l-.061.053c-.055.05-.109.1-.153.13-.027.018-.057.03-.085.045l-.182.1a1.33 1.33 0 0 1-.491.096l-3.146.019c-.359 0-.695-.137-.944-.383a1.287 1.287 0 0 1-.386-.926c0-.72.587-1.284 1.336-1.284h1.807l.002-8.092a1.908 1.908 0 0 1 .019-.362l.018-.065c.016-.065.03-.13.064-.211.073-.182.193-.348.355-.494l3.223-3.228-2.9-2.901-.156-.125a1.36 1.36 0 0 1-.604-.952 1.334 1.334 0 0 1-.019-.333v-7.98h-1.807a1.333 1.333 0 0 1-1.336-1.328 1.326 1.326 0 0 1 1.332-1.326l3.127.002.073-.001c.16.006.315.04.439.093.036.02.073.042.102.057l.056.028c.032.016.065.03.097.05.058.039.108.087.158.134a.9.9 0 0 0 .066.057c.042.044.082.095.118.146l.041.06c.027.044.052.095.077.147.012.03.027.058.042.086.017.048.03.098.044.15.012.045.028.09.047.137a.646.646 0 0 1 .013.081c.01.096.03.178.052.244l-.04 8.689 3.752 3.787c.264.265.403.615.392 1.03.008.376-.127.72-.38.975zm-13.63-19.737l-.629 6.98.007.08c.008.088.01.155.004.212a1.262 1.262 0 0 1-.044.225l-.02.077-2.252 25.988a1.316 1.316 0 0 1-.257.716l-.029.036c-.059.073-.11.128-.159.17l-4.658 3.996a1.232 1.232 0 0 1-.815.303c-.377 0-.731-.169-.976-.466-.018-.023-.031-.049-.047-.073l-3.855-4.673a1.294 1.294 0 0 1-.275-1.025l2.933-33.52c.009-.04.017-.08.023-.117l.012-.08a.592.592 0 0 0 .006-.042.844.844 0 0 0 .031-.082c.016-.045.03-.092.055-.147l.03-.054c.028-.048.062-.106.098-.157l.031-.037c.053-.062.099-.111.13-.14l.061-.046c.054-.044.109-.089.163-.118l.154-.073c.027-.014.053-.029.077-.039a1.75 1.75 0 0 1 .147-.037 1.22 1.22 0 0 0 .18-.053l.063-.01.068-.011 8.566.818.098.004c.226 0 .459.152.613.278.329.273.503.692.467 1.117zm-3.3 8.33l-6.012-.533-2.052 23.764 6.012.53zm.652-7.26l-6.01-.531-.423 4.68 6.011.53zM24.997 52.98a1.36 1.36 0 0 1 .392-1.031l3.751-3.788-.039-8.688a1.09 1.09 0 0 0 .052-.244.646.646 0 0 1 .013-.081c.019-.047.035-.092.047-.138a1.97 1.97 0 0 1 .044-.149 1.03 1.03 0 0 0 .042-.086 1.66 1.66 0 0 1 .077-.148l.041-.06a1.34 1.34 0 0 1 .118-.145c.023-.018.045-.038.066-.057.05-.047.1-.095.158-.133.032-.021.065-.035.097-.05l.056-.029c.03-.015.066-.036.103-.057.123-.053.278-.087.438-.093h3.201a1.326 1.326 0 1 1-.005 2.652h-1.808v7.981c.008.127.001.239-.018.333a1.36 1.36 0 0 1-.604.952l-.156.125-2.9 2.9 3.223 3.23c.163.145.282.31.355.492.034.082.048.147.064.212l.018.065c.017.1.025.244.02.362v8.092h1.808c.75 0 1.336.563 1.336 1.284 0 .352-.137.68-.385.926a1.34 1.34 0 0 1-.945.383l-3.146-.02a1.33 1.33 0 0 1-.491-.095l-.182-.1c-.028-.014-.058-.027-.085-.044a1.748 1.748 0 0 1-.153-.13l-.061-.055a1.379 1.379 0 0 1-.125-.156l-.034-.048a2.309 2.309 0 0 1-.084-.166l-.028-.053c-.016-.045-.025-.093-.037-.14a1.385 1.385 0 0 0-.038-.124 2.348 2.348 0 0 0-.039-.14c-.005-.012-.002.006 0 .027a1.132 1.132 0 0 0-.053-.247l.04-8.76-3.764-3.787a1.325 1.325 0 0 1-.38-.974z"/></defs><use fill="#8d81ac" xlink:href="#a" transform="translate(-25 -32)"/></svg>